<svg xmlns="http://www.w3.org/2000/svg" width="1024" height="1024" viewBox="0 0 1024 1024">
  <defs>
    <linearGradient id="bg" x1="0" y1="0" x2="1" y2="1">
      <stop offset="0" stop-color="#1B2044"/>
      <stop offset="1" stop-color="#0A0C1B"/>
    </linearGradient>
  </defs>
  <rect width="1024" height="1024" fill="url(#bg)"/>
  <path d="M202,790 L202,628 A28,28 0 0 1 230,600 L284,600 A28,28 0 0 1 312,628 L312,790 Z" fill="#EA4335"/><path d="M372,790 L372,508 A28,28 0 0 1 400,480 L454,480 A28,28 0 0 1 482,508 L482,790 Z" fill="#FBBC05"/><path d="M542,790 L542,388 A28,28 0 0 1 570,360 L624,360 A28,28 0 0 1 652,388 L652,790 Z" fill="#34A853"/><path d="M712,790 L712,268 A28,28 0 0 1 740,240 L794,240 A28,28 0 0 1 822,268 L822,790 Z" fill="#4285F4"/>
</svg>